<?xml version="1.0" encoding="UTF-8" standalone="no"?>
<!DOCTYPE svg PUBLIC "-//W3C//DTD SVG 1.1//EN"
 "http://www.w3.org/Graphics/SVG/1.1/DTD/svg11.dtd">
<!-- Generated by graphviz version 2.40.1 (20161225.0304)
 -->
<!-- Title: episodicbuffer Pages: 1 -->
<svg width="372pt" height="394pt"
 viewBox="0.00 0.00 372.00 394.00" xmlns="http://www.w3.org/2000/svg" xmlns:xlink="http://www.w3.org/1999/xlink">
<g id="graph0" class="graph" transform="scale(1 1) rotate(0) translate(4 390)">
<title>episodicbuffer</title>
<polygon fill="#ffffff" stroke="transparent" points="-4,4 -4,-390 368,-390 368,4 -4,4"/>
<g id="clust1" class="cluster">
<title>cluster_ca</title>
<polygon fill="none" stroke="#000000" points="8,-8 8,-378 356,-378 356,-8 8,-8"/>
<text text-anchor="middle" x="182" y="-14.8" font-family="Times,serif" font-size="14.00" fill="#000000">Arquitectura cognitiva</text>
</g>
<g id="clust2" class="cluster">
<title>cluster_ltm</title>
<polygon fill="none" stroke="#000000" points="16,-296 16,-370 300,-370 300,-296 16,-296"/>
<text text-anchor="middle" x="158" y="-302.8" font-family="Times,serif" font-size="14.00" fill="#000000">Memoria a largo plazo</text>
</g>
<g id="clust3" class="cluster">
<title>cluster_wm</title>
<polygon fill="none" stroke="#000000" points="99,-152 99,-226 284,-226 284,-152 99,-152"/>
<text text-anchor="middle" x="191.5" y="-158.8" font-family="Times,serif" font-size="14.00" fill="#000000">Memoria de trabajo</text>
</g>
<!-- episodic_memory -->
<g id="node1" class="node">
<title>episodic_memory</title>
<polygon fill="none" stroke="#000000" points="147.6869,-362 24.3131,-362 24.3131,-326 147.6869,-326 147.6869,-362"/>
<text text-anchor="middle" x="86" y="-339.8" font-family="Times,serif" font-size="14.00" fill="#000000">Memoria episódica</text>
</g>
<!-- semantic_memory -->
<g id="node2" class="node">
<title>semantic_memory</title>
<polygon fill="none" stroke="#000000" points="292.2902,-362 165.7098,-362 165.7098,-326 292.2902,-326 292.2902,-362"/>
<text text-anchor="middle" x="229" y="-339.8" font-family="Times,serif" font-size="14.00" fill="#000000">Memoria semántica</text>
</g>
<!-- episodic_buffer -->
<g id="node3" class="node">
<title>episodic_buffer</title>
<polygon fill="none" stroke="#000000" points="216.9482,-218 107.0518,-218 107.0518,-182 216.9482,-182 216.9482,-218"/>
<text text-anchor="middle" x="162" y="-195.8" font-family="Times,serif" font-size="14.00" fill="#000000">Buffer episódico</text>
</g>
<!-- episodic_buffer&#45;&gt;episodic_memory -->
<g id="edge4" class="edge">
<title>episodic_buffer&#45;&gt;episodic_memory</title>
<path fill="none" stroke="#000000" d="M97.5128,-215.0896C76.7859,-223.3191 56.0546,-235.8939 43.875,-255 31.0454,-275.1257 44.7394,-299.7712 59.8422,-318.0203"/>
<polygon fill="#000000" stroke="#000000" points="98.8227,-218.3372 107.0048,-211.6064 96.4112,-211.7656 98.8227,-218.3372"/>
<polygon fill="#000000" stroke="#000000" points="57.5564,-320.7208 66.7902,-325.9157 62.8114,-316.0963 57.5564,-320.7208"/>
<text text-anchor="middle" x="112.5625" y="-257.8" font-family="Times,serif" font-size="14.00" fill="#000000">almacenaje/recuperación</text>
</g>
<!-- episodic_buffer&#45;&gt;semantic_memory -->
<g id="edge5" class="edge">
<title>episodic_buffer&#45;&gt;semantic_memory</title>
<path fill="none" stroke="#000000" d="M174.7434,-227.3887C186.6786,-253.0405 204.4149,-291.1604 216.3272,-316.7629"/>
<polygon fill="#000000" stroke="#000000" points="177.8775,-225.8279 170.4856,-218.2377 171.5308,-228.7809 177.8775,-225.8279"/>
<polygon fill="#000000" stroke="#000000" points="213.1914,-318.3202 220.5833,-325.9104 219.5381,-315.3672 213.1914,-318.3202"/>
<text text-anchor="middle" x="262.5625" y="-257.8" font-family="Times,serif" font-size="14.00" fill="#000000">almacenaje/recuperación</text>
</g>
<!-- episodic_buffer&#45;&gt;episodic_buffer -->
<g id="edge1" class="edge">
<title>episodic_buffer&#45;&gt;episodic_buffer</title>
<path fill="none" stroke="#000000" d="M216.8648,-193.573C227.3258,-194.342 234.7236,-196.4844 234.7236,-200 234.7236,-202.1973 231.8339,-203.8581 227.1126,-204.9825"/>
<polygon fill="#000000" stroke="#000000" points="226.2784,-201.5654 216.8648,-206.427 227.2555,-208.4968 226.2784,-201.5654"/>
<text text-anchor="middle" x="255.7202" y="-195.8" font-family="Times,serif" font-size="14.00" fill="#000000">análisis</text>
</g>
<!-- input -->
<g id="node4" class="node">
<title>input</title>
<ellipse fill="none" stroke="#000000" cx="162" cy="-56" rx="28.0736" ry="18"/>
<text text-anchor="middle" x="162" y="-51.8" font-family="Times,serif" font-size="14.00" fill="#000000">input</text>
</g>
<!-- input&#45;&gt;episodic_buffer -->
<g id="edge2" class="edge">
<title>input&#45;&gt;episodic_buffer</title>
<path fill="none" stroke="#000000" d="M151.3269,-73.0979C145.411,-83.6003 138.649,-97.5736 135.5928,-111 130.8239,-131.9503 138.183,-155.2161 146.332,-172.7043"/>
<polygon fill="#000000" stroke="#000000" points="143.2648,-174.3962 150.8685,-181.7742 149.5254,-171.2649 143.2648,-174.3962"/>
<text text-anchor="middle" x="165.7036" y="-113.8" font-family="Times,serif" font-size="14.00" fill="#000000">percepción</text>
</g>
<!-- input&#45;&gt;episodic_buffer -->
<g id="edge3" class="edge">
<title>input&#45;&gt;episodic_buffer</title>
<path fill="none" stroke="#000000" d="M175.7399,-72.1152C183.6481,-82.4814 192.823,-96.656 197,-111 199.9859,-121.2538 199.2617,-131.9737 196.5032,-142.278"/>
<polygon fill="#000000" stroke="#000000" points="193.1046,-141.4081 193.29,-152.0014 199.7511,-143.6047 193.1046,-141.4081"/>
</g>
</g>
</svg>
