<?xml version="1.0" encoding="UTF-8" standalone="no"?>
<!DOCTYPE svg PUBLIC "-//W3C//DTD SVG 1.1//EN"
 "http://www.w3.org/Graphics/SVG/1.1/DTD/svg11.dtd">
<!-- Generated by graphviz version 2.40.1 (20161225.0304)
 -->
<!-- Title: kernelsatellite Pages: 1 -->
<svg width="324pt" height="216pt"
 viewBox="0.00 0.00 324.37 216.00" xmlns="http://www.w3.org/2000/svg" xmlns:xlink="http://www.w3.org/1999/xlink">
<g id="graph0" class="graph" transform="scale(1 1) rotate(0) translate(4 212)">
<title>kernelsatellite</title>
<polygon fill="#ffffff" stroke="transparent" points="-4,4 -4,-212 320.3723,-212 320.3723,4 -4,4"/>
<!-- sat1 -->
<g id="node1" class="node">
<title>sat1</title>
<ellipse fill="none" stroke="#000000" cx="91.5879" cy="-190" rx="41.5699" ry="18"/>
<text text-anchor="middle" x="91.5879" y="-185.8" font-family="Times,serif" font-size="14.00" fill="#000000">satélite 1</text>
</g>
<!-- i1 -->
<!-- sat1&#45;&gt;i1 -->
<!-- sat2 -->
<g id="node2" class="node">
<title>sat2</title>
<ellipse fill="none" stroke="#000000" cx="195.5879" cy="-190" rx="41.5699" ry="18"/>
<text text-anchor="middle" x="195.5879" y="-185.8" font-family="Times,serif" font-size="14.00" fill="#000000">satélite 2</text>
</g>
<!-- sat2&#45;&gt;i1 -->
<!-- kernel -->
<g id="node4" class="node">
<title>kernel</title>
<ellipse fill="none" stroke="#000000" cx="190.5879" cy="-104" rx="33.8596" ry="18"/>
<text text-anchor="middle" x="190.5879" y="-99.8" font-family="Times,serif" font-size="14.00" fill="#000000">núcleo</text>
</g>
<!-- i1&#45;&gt;kernel -->
<!-- kernel&#45;&gt;sat1 -->
<g id="edge4" class="edge">
<title>kernel&#45;&gt;sat1</title>
<path fill="none" stroke="#000000" d="M172.7171,-119.5241C157.3962,-132.8332 135.1194,-152.1847 117.7837,-167.2441"/>
<polygon fill="#000000" stroke="#000000" points="115.4631,-164.6237 110.209,-173.8241 120.0537,-169.9083 115.4631,-164.6237"/>
<text text-anchor="middle" x="161.9707" y="-142.8" font-family="Times,serif" font-size="14.00" fill="#000000">lugar</text>
</g>
<!-- kernel&#45;&gt;sat2 -->
<g id="edge5" class="edge">
<title>kernel&#45;&gt;sat2</title>
<path fill="none" stroke="#000000" d="M191.6467,-122.2121C192.3093,-133.6086 193.177,-148.5329 193.9295,-161.4762"/>
<polygon fill="#000000" stroke="#000000" points="190.4529,-161.9816 194.5275,-171.7616 197.4411,-161.5753 190.4529,-161.9816"/>
<text text-anchor="middle" x="213.0293" y="-142.8" font-family="Times,serif" font-size="14.00" fill="#000000">tiempo</text>
</g>
<!-- sat3 -->
<g id="node5" class="node">
<title>sat3</title>
<ellipse fill="none" stroke="#000000" cx="107.5879" cy="-18" rx="107.6759" ry="18"/>
<text text-anchor="middle" x="107.5879" y="-13.8" font-family="Times,serif" font-size="14.00" fill="#000000">satélite 3 (unidad narrativa)</text>
</g>
<!-- kernel&#45;&gt;sat3 -->
<g id="edge6" class="edge">
<title>kernel&#45;&gt;sat3</title>
<path fill="none" stroke="#000000" d="M174.9762,-87.8241C162.8197,-75.2281 145.7286,-57.5193 131.8007,-43.088"/>
<polygon fill="#000000" stroke="#000000" points="134.3115,-40.6494 124.8486,-35.8845 129.2746,-45.5106 134.3115,-40.6494"/>
<text text-anchor="middle" x="170.1328" y="-56.8" font-family="Times,serif" font-size="14.00" fill="#000000">causa</text>
</g>
<!-- sat4 -->
<g id="node6" class="node">
<title>sat4</title>
<ellipse fill="none" stroke="#000000" cx="274.5879" cy="-18" rx="41.5699" ry="18"/>
<text text-anchor="middle" x="274.5879" y="-13.8" font-family="Times,serif" font-size="14.00" fill="#000000">satélite 4</text>
</g>
<!-- kernel&#45;&gt;sat4 -->
<g id="edge7" class="edge">
<title>kernel&#45;&gt;sat4</title>
<path fill="none" stroke="#000000" d="M206.3877,-87.8241C219.0144,-74.8966 236.9015,-56.5837 251.1894,-41.9556"/>
<polygon fill="#000000" stroke="#000000" points="253.8024,-44.2894 258.286,-34.69 248.7948,-39.3982 253.8024,-44.2894"/>
<text text-anchor="middle" x="258.9605" y="-56.8" font-family="Times,serif" font-size="14.00" fill="#000000">agencia</text>
</g>
</g>
</svg>
